<?xml version="1.0" encoding="utf-8"?>
<!-- Generator: Adobe Illustrator 25.4.0, SVG Export Plug-In . SVG Version: 6.00 Build 0)  -->
<svg version="1.1" id="Layer_1" xmlns="http://www.w3.org/2000/svg" xmlns:xlink="http://www.w3.org/1999/xlink" x="0px" y="0px"
	 viewBox="0 0 20 17" style="enable-background:new 0 0 20 17;" xml:space="preserve">
<style type="text/css">
	.st0{fill:none;}
	.st1{fill-rule:evenodd;clip-rule:evenodd;fill:#FFFFFF;}
</style>
<desc>Created with Sketch.</desc>
<g id="Icons">
	<g id="Rounded" transform="translate(-816.000000, -289.000000)">
		<g id="Action" transform="translate(100.000000, 100.000000)">
			<g id="_x2D_Round-_x2F_-Action-_x2F_-home" transform="translate(714.000000, 186.000000)">
				<g transform="translate(0.000000, 0.000000)">
					<polygon id="Path" class="st0" points="0,0 24,0 24,24 0,24 					"/>
					<path id="_xD83D__xDD39_Icon-Color" class="st1" d="M10,19v-5h4v5c0,0.5,0.4,1,1,1h3c0.5,0,1-0.5,1-1v-7h1.7
						c0.5,0,0.7-0.6,0.3-0.9l-8.4-7.5c-0.4-0.3-1-0.3-1.3,0L3,11.1C2.6,11.4,2.8,12,3.3,12H5v7c0,0.5,0.4,1,1,1h3
						C9.6,20,10,19.5,10,19z"/>
				</g>
			</g>
		</g>
	</g>
</g>
</svg>
